<svg xmlns="http://www.w3.org/2000/svg" xmlns:xlink="http://www.w3.org/1999/xlink" version="1.1" x="0px" y="0px" viewBox="0 0 32 40" style="enable-background:new 0 0 32 32;" xml:space="preserve"><path d="M10.2119141,16.8720703l-0.9228516,3.3833008c-0.1904297,0.7011719,0.0019531,1.4262695,0.515625,1.9399414  c0.3837891,0.3833008,0.8837891,0.5874023,1.4042969,0.5874023c0.1777344,0,0.3583984-0.0239258,0.5361328-0.0722656  l3.3828125-0.9223633h0.0009766c0.8369141-0.2285156,1.6044922-0.6743164,2.21875-1.2885742l11.4414062-11.440918  c1.6113281-1.6118164,1.6113281-4.2348633,0-5.8476562c-1.6132812-1.6123047-4.2363281-1.6123047-5.8476562,0L11.5,14.6523438  C10.8867188,15.2661133,10.4414062,16.0336914,10.2119141,16.8720703z M27.375,4.625  c0.8320312,0.8325195,0.8320312,2.1870117,0,3.0195312l-11.4414062,11.440918  c-0.3691406,0.3686523-0.8291016,0.6357422-1.3310547,0.7729492L11.21875,20.78125l0.9228516-3.3823242  c0.1376953-0.5039062,0.4042969-0.9648438,0.7724609-1.3330078L24.3554688,4.625  c0.4160156-0.4160156,0.9628906-0.6240234,1.5097656-0.6240234S26.9589844,4.2089844,27.375,4.625z"/><path d="M7,30h15.7001953c2.7568359,0,5-2.2431641,5-5v-9.6098633c0-0.5522461-0.4472656-1-1-1s-1,0.4477539-1,1V25  c0,1.6542969-1.3457031,3-3,3H7c-1.6542969,0-3-1.3457031-3-3V9.2998047c0-1.6542969,1.3457031-3,3-3h9.6103516  c0.5527344,0,1-0.4477539,1-1s-0.4472656-1-1-1H7c-2.7568359,0-5,2.2431641-5,5V25C2,27.7568359,4.2431641,30,7,30z"/><text x="0" y="47" fill="#000000" font-size="5px" font-weight="bold" font-family="'Helvetica Neue', Helvetica, Arial-Unicode, Arial, Sans-serif">Created by Riyan Resdian</text><text x="0" y="52" fill="#000000" font-size="5px" font-weight="bold" font-family="'Helvetica Neue', Helvetica, Arial-Unicode, Arial, Sans-serif">from the Noun Project</text></svg>